<svg width="24" height="25" viewBox="0 0 24 25" fill="none" xmlns="http://www.w3.org/2000/svg">
<path d="M23.363 12.5553C23.3339 12.4321 23.3086 12.3052 23.2687 12.1927V12.1929C23.1137 11.6878 22.8502 11.2226 22.4965 10.8299C21.9671 10.2441 21.2584 9.85012 20.4814 9.71005C20.5393 9.07569 20.5936 8.34349 20.6409 7.53513L20.7279 5.80624L20.7641 4.87102C20.7754 4.67785 20.7754 4.48418 20.7641 4.29101L20.7206 3.97194L20.648 3.65665V3.6569C20.4579 2.98641 20.0784 2.38491 19.555 1.92471C19.0316 1.46429 18.3869 1.1647 17.6977 1.06152C17.2941 1.02006 16.8889 1.00185 16.4833 1.00716C15.0335 0.98542 13.5039 0.974548 11.9924 0.974548C10.4809 0.974548 8.96569 0.974548 7.50153 1.00362H7.50128C7.09598 0.998821 6.69046 1.01702 6.28715 1.05798C5.5964 1.15887 4.9494 1.45696 4.42402 1.9169C3.89887 2.37655 3.51733 2.97827 3.32568 3.64961C3.2693 3.85845 3.23036 4.07209 3.20988 4.28751C3.198 4.48068 3.198 4.67435 3.20988 4.86752L3.24604 5.80274L3.33301 7.53163C3.3765 8.28556 3.42732 8.98136 3.47789 9.56875C2.95933 9.65825 2.46551 9.85597 2.02816 10.1485C1.0851 10.7758 0.470921 11.7912 0.353638 12.9178V13.3165V17.2673C0.353638 17.3834 0.353638 17.5282 0.375382 17.6587C0.397126 17.7892 0.415329 17.9234 0.437073 18.0539C0.664371 19.0933 1.32349 19.9871 2.2494 20.5115C2.69489 20.7656 3.1887 20.9236 3.69913 20.9754C3.82605 20.9754 3.94918 20.9754 4.0617 20.9936H4.93854L7.08433 20.961C6.10943 21.9359 5.14152 23.4982 5.08721 24.3791L5.08747 24.3789C5.21136 24.5083 5.34991 24.6226 5.5006 24.7197C5.62044 24.8175 5.75192 24.9002 5.89199 24.9662C6.97945 24.5384 8.70834 22.2295 8.9475 20.932C11.1585 20.892 13.2065 20.8415 15.0223 20.7833C15.1384 22.0412 16.9507 24.5167 18.089 24.9627C18.2495 24.8838 18.4005 24.7864 18.5383 24.6727C18.671 24.5887 18.7929 24.4891 18.9009 24.3753C18.843 23.4112 17.7047 21.6641 16.6536 20.7216C17.7047 20.6817 18.6543 20.642 19.4952 20.5947V20.5949C19.7377 20.5406 19.8962 20.3075 19.8578 20.062C19.8677 19.8392 19.7139 19.6425 19.4952 19.598C16.1353 19.4167 10.9482 19.2863 4.94227 19.2028H3.90918V19.2031C3.65255 19.1697 3.40578 19.0832 3.18431 18.9492C2.73047 18.6762 2.41239 18.2251 2.30721 17.706L2.28193 17.5103V13.1135C2.34261 12.576 2.64045 12.0938 3.09379 11.7988C3.54712 11.5037 4.10869 11.4266 4.62468 11.5884C5.14068 11.7503 5.55764 12.1341 5.7614 12.6352C5.81121 12.7586 5.84509 12.8875 5.86278 13.0192C5.88503 13.1765 5.89338 13.3355 5.88832 13.4941V14.7411C5.88706 15.0098 5.99552 15.2677 6.18818 15.4548C6.3811 15.6422 6.64177 15.743 6.91052 15.7342C10.43 15.7342 13.8478 15.7051 17.0595 15.669H17.0813H17.081C17.328 15.669 17.5647 15.5693 17.7374 15.3926C17.9101 15.2161 18.0042 14.9772 17.9981 14.7302V13.2805C17.9913 12.7596 18.1945 12.2583 18.5622 11.8891C18.9295 11.5202 19.4301 11.3149 19.9507 11.3195C20.4716 11.324 20.9684 11.5384 21.3292 11.9139C21.5337 12.1197 21.6918 12.367 21.7931 12.6388L21.8548 12.8453L21.8948 13.0554V13.57L21.9527 15.8063L21.9853 16.8538V17.3395V17.34C21.9856 17.4614 21.9772 17.5825 21.96 17.7026C21.8789 18.1797 21.6462 18.6181 21.2966 18.9528C20.9793 19.2562 20.5818 19.4626 20.1513 19.5475C19.9406 19.6408 19.8178 19.8631 19.8504 20.0911C19.8494 20.2039 19.8944 20.3121 19.9753 20.391C20.0559 20.4696 20.1654 20.5118 20.2782 20.508C20.9179 20.4522 21.5269 20.2087 22.0288 19.8084C22.6151 19.3505 23.0341 18.7123 23.2215 17.9923C23.2655 17.7956 23.2933 17.5956 23.3046 17.3943C23.3046 17.1913 23.3046 17.0317 23.3264 16.8687L23.359 15.8211L23.4169 13.5848V12.9287C23.399 12.8164 23.3807 12.6895 23.3628 12.5552L23.363 12.5553ZM17.8499 10.2175C17.3407 10.5467 16.9192 10.9945 16.6211 11.5224C16.3228 12.0685 16.1632 12.6797 16.1572 13.3021V13.8022C13.5074 13.7769 10.742 13.7587 7.90398 13.7514V13.494C7.91005 13.2371 7.89538 12.9803 7.86049 12.7257C7.8208 12.445 7.74773 12.1699 7.6428 11.9065C7.22588 10.8312 6.34324 10.0032 5.24341 9.65578C5.03634 9.59232 4.82421 9.54757 4.60905 9.52153C4.66214 8.92711 4.71043 8.25659 4.75392 7.50998L4.8409 5.78108L4.87706 4.84586H4.87731C4.88009 4.71843 4.89096 4.59125 4.90993 4.46509C4.92965 4.3546 4.95746 4.24538 4.99337 4.13893C5.15341 3.70759 5.46541 3.34934 5.87047 3.13141C6.08108 3.02117 6.31141 2.95341 6.54834 2.93192C6.72962 2.91018 7.15363 2.93192 7.50887 2.93192C8.9586 2.95367 10.4883 2.961 11.9997 2.961C13.5112 2.961 15.0265 2.961 16.4906 2.92838C16.8532 2.92838 17.2699 2.90664 17.4512 2.92838H17.4514C17.685 2.95341 17.9116 3.02345 18.1184 3.13495C18.5272 3.35618 18.8407 3.72001 18.999 4.15716L19.0498 4.32024L19.0824 4.48686C19.1011 4.61429 19.112 4.74247 19.1151 4.87117L19.1512 5.80639L19.2346 7.53173C19.2817 8.32915 19.3325 9.0467 19.3904 9.6702C18.8428 9.73594 18.3166 9.92304 17.8501 10.2176L17.8499 10.2175Z" fill="#1B1A1A"/>
</svg>
