<svg width="32" height="14" viewBox="0 0 32 14" fill="none" xmlns="http://www.w3.org/2000/svg">
<path d="M25.3837 7.50968C25.4307 5.55599 25.4706 3.41751 25.4959 0.985309H25.4962C25.499 0.739046 25.4039 0.501884 25.232 0.325882C25.06 0.149879 24.8251 0.0492823 24.5791 0.0464991H24.5609L20.9037 0.0100908C20.6473 0.0083209 20.4008 0.108442 20.2185 0.288716C20.0362 0.468991 19.9333 0.714489 19.9323 0.970862V2.8593L16.6011 0.216935C16.4272 0.0766095 16.2103 0 15.9868 0C15.7632 0 15.5463 0.0766095 15.3724 0.216935C9.23227 5.23701 3.49452 10.087 0.511302 12.867C0.384381 12.9866 0.431657 13.2584 0.616482 13.4649C0.801307 13.6715 1.00787 13.7296 1.13479 13.6389C4.35361 11.377 10.0152 7.00576 15.9848 2.25747L20.28 5.72257C20.4759 5.87908 20.7235 5.95569 20.9735 5.93697C21.2233 5.91852 21.457 5.80601 21.6276 5.62245C21.798 5.43889 21.8928 5.19743 21.8931 4.94684V1.96006H23.6401C23.6692 4.13498 23.7054 6.10653 23.7524 7.90093V7.94441C23.7592 8.17651 23.8697 8.3932 24.0533 8.53529C26.9531 10.8043 29.2328 12.5225 30.8747 13.6605C31.0125 13.7584 31.2626 13.6605 31.4257 13.4358C31.5887 13.211 31.5961 13.0118 31.4874 12.9066C30.0712 11.5726 28.0367 9.77372 25.3834 7.50954L25.3837 7.50968Z" fill="#1B1A1A"/>
</svg>
